HIERARCHY
ROOT Hips
{
 OFFSET 0.000000 0.000000 0.000000
 CHANNELS 6 Xposition Yposition Zposition Yrotation Xrotation Zrotation
 JOINT Chest
 {
  OFFSET 0.000000 9.585900 0.002600
  CHANNELS 3 Yrotation Xrotation Zrotation
  JOINT Chest2
  {
   OFFSET 0.000000 9.601200 -0.005300
   CHANNELS 3 Yrotation Xrotation Zrotation
   JOINT Chest3
   {
    OFFSET 0.000000 9.561800 0.000000
    CHANNELS 3 Yrotation Xrotation Zrotation
    JOINT Chest4
    {
     OFFSET 0.000000 9.552100 0.000000
     CHANNELS 3 Yrotation Xrotation Zrotation
     JOINT Neck
     {
      OFFSET 0.000000 14.453000 0.000000
      CHANNELS 3 Yrotation Xrotation Zrotation
      JOINT Head
      {
       OFFSET 0.000000 8.936500 -0.011300
       CHANNELS 3 Yrotation Xrotation Zrotation
       End Site
       {
        OFFSET 0.000000 17.073600 -0.006000
       }
      }
     }
     JOINT RightCollar
     {
      OFFSET -2.921100 9.558500 0.000000
      CHANNELS 3 Yrotation Xrotation Zrotation
      JOINT RightShoulder
      {
       OFFSET -13.519700 0.000000 0.000000
       CHANNELS 3 Yrotation Xrotation Zrotation
       JOINT RightElbow
       {
        OFFSET 0.000000 -29.696600 0.000000
        CHANNELS 3 Yrotation Xrotation Zrotation
        JOINT RightWrist
        {
         OFFSET 0.000000 -24.004700 0.000000
         CHANNELS 3 Yrotation Xrotation Zrotation
         End Site
         {
          OFFSET 0.000000 -17.728500 0.000000
         }
        }
       }
      }
     }
     JOINT LeftCollar
     {
      OFFSET 2.921100 9.558500 0.000000
      CHANNELS 3 Yrotation Xrotation Zrotation
      JOINT LeftShoulder
      {
       OFFSET 13.519700 0.000000 0.000000
       CHANNELS 3 Yrotation Xrotation Zrotation
       JOINT LeftElbow
       {
        OFFSET 0.000000 -29.696600 0.000000
        CHANNELS 3 Yrotation Xrotation Zrotation
        JOINT LeftWrist
        {
         OFFSET 0.000000 -24.004700 0.000000
         CHANNELS 3 Yrotation Xrotation Zrotation
         End Site
         {
          OFFSET 0.000000 -17.728500 0.000000
         }
        }
       }
      }
     }
    }
   }
  }
 }
 JOINT RightHip
 {
  OFFSET -7.771700 -0.012900 -0.001300
  CHANNELS 3 Yrotation Xrotation Zrotation
  JOINT RightKnee
  {
   OFFSET 0.000000 -40.869800 0.001200
   CHANNELS 3 Yrotation Xrotation Zrotation
   JOINT RightAnkle
   {
    OFFSET 0.000000 -39.717900 0.002100
    CHANNELS 3 Yrotation Xrotation Zrotation
    JOINT RightToe
    {
     OFFSET 0.000000 -4.965400 11.033500
     CHANNELS 3 Yrotation Xrotation Zrotation
     End Site
     {
      OFFSET 0.000000 -1.423100 5.872300
     }
    }
   }
  }
 }
 JOINT LeftHip
 {
  OFFSET 7.771700 -0.012900 -0.001300
  CHANNELS 3 Yrotation Xrotation Zrotation
  JOINT LeftKnee
  {
   OFFSET 0.000000 -40.869800 0.001200
   CHANNELS 3 Yrotation Xrotation Zrotation
   JOINT LeftAnkle
   {
    OFFSET 0.000000 -39.717900 0.002100
    CHANNELS 3 Yrotation Xrotation Zrotation
    JOINT LeftToe
    {
     OFFSET 0.000000 -4.965400 11.033500
     CHANNELS 3 Yrotation Xrotation Zrotation
     End Site
     {
      OFFSET 0.000000 -1.423100 5.872300
     }
    }
   }
  }
 }
}
MOTION
Frames: 11
Frame Time: 0.008333
-19.918667 50.696345 8.609306 163.296535 -8.185663 -0.061551 2.758081 7.448259 1.106308 0.099998 0.335850 0.004322 0.202900 0.617623 0.015724 2.345669 7.068455 0.313381 3.040489 18.131475 -0.495561 5.750967 -2.044872 -1.901148 1.750056 3.153113 -0.745055 -4.544430 -12.615189 -9.185676 -29.540394 -74.027570 57.029762 -0.625609 1.302683 -26.208845 -4.134569 0.793547 0.395094 16.640946 -5.207488 5.472636 81.467927 -80.403884 -111.627155 1.250788 3.933933 17.352002 -2.082278 -72.537054 -0.752089 -117.465967 83.697017 -115.963794 -3.454508 -13.606023 -0.171346 -0.229335 0.716910 -0.111626 -11.650817 -75.336216 27.541446 110.065058 79.801148 105.707419 -15.897008 -20.583299 0.508416 -0.365068 -0.937145 -0.168080
-19.916201 50.700753 8.607022 163.315303 -8.162757 -0.057090 2.702738 7.382814 1.083947 0.113934 0.348886 0.008238 0.199155 0.610059 0.014862 2.317505 7.029501 0.301962 3.019269 18.102190 -0.503326 5.715553 -2.099722 -1.909938 1.713739 3.025243 -0.901767 -4.330347 -12.600690 -8.833925 -24.612725 -74.011990 51.598594 0.094915 1.960245 -24.765429 -4.071901 0.685069 0.476359 16.269844 -5.145340 5.349122 76.644963 -81.060067 -106.460999 1.387256 3.742211 17.389476 -2.092672 -72.555492 -0.767988 -117.505015 83.698011 -115.994347 -3.452124 -13.612095 -0.184003 -0.225848 0.713506 -0.109064 -11.616105 -75.358852 27.501859 110.064827 79.814282 105.715181 -15.911696 -20.610163 0.510136 -0.357333 -0.959108 -0.161181
-19.914720 50.704965 8.601181 163.310759 -8.155706 -0.040604 2.694780 7.360934 1.063833 0.100268 0.323401 0.004694 0.202817 0.616041 0.016489 2.280003 6.965472 0.288075 2.993476 18.081553 -0.506204 5.669759 -2.138988 -1.907929 1.679802 2.941640 -1.050638 -4.047104 -12.660088 -8.537649 -20.399405 -73.393581 46.928013 0.663844 2.698258 -23.372408 -4.019725 0.601684 0.555234 15.867549 -5.114591 5.222713 70.142534 -81.613193 -99.600562 1.539677 3.651009 17.494494 -2.042676 -72.560790 -0.818920 -117.546197 83.697237 -116.028552 -3.459873 -13.616385 -0.190417 -0.217536 0.708069 -0.105751 -11.518094 -75.365134 27.424363 110.142865 79.815580 105.778306 -15.888255 -20.645967 0.530248 -0.386097 -0.963678 -0.169487
-19.914062 50.707608 8.598110 163.313806 -8.129450 -0.029198 2.679116 7.317358 1.047491 0.086096 0.291821 -0.001940 0.198649 0.605478 0.015708 2.251450 6.908591 0.278006 2.962063 18.068490 -0.504310 5.611782 -2.164703 -1.894811 1.648581 2.893492 -1.181662 -3.670694 -12.782127 -8.324564 -17.321467 -72.206377 43.412797 1.042393 3.491630 -22.059405 -3.984278 0.540603 0.625604 15.447312 -5.120709 5.109666 61.782921 -82.013852 -90.866181 1.690158 3.653955 17.658792 -2.031594 -72.588032 -0.840854 -117.593419 83.700122 -116.077255 -3.455961 -13.615079 -0.190464 -0.223736 0.697565 -0.107392 -11.479440 -75.391069 27.389872 110.171824 79.807807 105.795144 -15.847641 -20.670063 0.532888 -0.374423 -0.972961 -0.169564
-19.913903 50.708728 8.594147 163.325071 -8.107110 -0.018956 2.641458 7.252153 1.022853 0.097808 0.308998 0.001479 0.175890 0.548227 0.004585 2.233144 6.862324 0.270338 2.924364 18.061228 -0.497116 5.540344 -2.180147 -1.869595 1.628050 2.863673 -1.282510 -3.191259 -12.937699 -8.224724 -15.458472 -70.549596 41.119755 1.250322 4.298904 -20.864165 -3.967353 0.497437 0.690170 15.024105 -5.169006 5.023494 51.746566 -82.201917 -80.450872 1.830400 3.738560 17.884257 -2.015048 -72.609199 -0.879956 -117.693234 83.706242 -116.167157 -3.459379 -13.626351 -0.202752 -0.219096 0.698488 -0.104905 -11.450555 -75.413962 27.358900 110.203252 79.801861 105.813332 -15.822709 -20.688997 0.545186 -0.382803 -0.984671 -0.178904
-19.908765 50.707864 8.591631 163.332215 -8.086046 -0.043357 2.596230 7.119336 1.010725 0.125540 0.392113 0.025436 0.161572 0.499890 -0.007503 2.208330 6.799229 0.259395 2.880908 18.058734 -0.486335 5.457091 -2.187166 -1.835826 1.630902 2.835905 -1.345464 -2.621669 -13.095376 -8.262419 -14.574888 -68.565942 39.824411 1.311639 5.042874 -19.809918 -3.966230 0.466059 0.751332 14.600325 -5.257751 4.977704 40.783418 -82.124756 -69.116332 1.946673 3.909361 18.167439 -2.105341 -72.628302 -0.800238 -117.746377 83.706230 -116.209035 -3.449487 -13.625591 -0.214307 -0.222072 0.689531 -0.106303 -11.527288 -75.423432 27.469106 110.240763 79.830881 105.841389 -15.834344 -20.741072 0.537763 -0.390450 -0.946726 -0.158403
-19.908040 50.705082 8.585416 163.359049 -8.081039 -0.042475 2.559058 7.083481 0.995653 0.113787 0.356566 0.014870 0.170350 0.526525 0.002432 2.172558 6.694732 0.238332 2.831428 18.060764 -0.474833 5.362363 -2.186048 -1.798505 1.661992 2.797970 -1.371241 -1.990376 -13.237204 -8.446157 -14.329296 -66.410242 39.210393 1.236720 5.627009 -18.910571 -3.980599 0.439541 0.808934 14.161961 -5.378006 4.985809 29.888016 -81.776547 -57.849535 2.011886 4.155653 18.489229 -2.118240 -72.640325 -0.823832 -117.979350 83.703597 -116.427449 -3.459727 -13.630280 -0.231610 -0.213065 0.675150 -0.098592 -11.528042 -75.426302 27.470450 110.286943 79.850646 105.879552 -15.864959 -20.773651 0.515226 -0.409568 -0.927143 -0.124944
-19.906733 50.700002 8.579620 163.371938 -8.078087 -0.046228 2.524995 6.994736 0.972708 0.112857 0.371361 0.019900 0.178976 0.556626 0.010716 2.140662 6.589865 0.218208 2.775917 18.067427 -0.464656 5.256702 -2.176341 -1.761342 1.720611 2.749024 -1.369894 -1.347515 -13.364378 -8.760232 -14.416159 -64.239536 39.028149 1.048627 5.975428 -18.185061 -4.013436 0.414903 0.863101 13.696488 -5.520080 5.060302 19.722618 -81.206016 -47.301928 2.017669 4.426187 18.823507 -2.128145 -72.649777 -0.826269 -118.150005 83.701182 -116.593351 -3.465600 -13.633996 -0.235220 -0.213358 0.668384 -0.095934 -11.542438 -75.430019 27.502036 110.375548 79.857357 105.950082 -15.876360 -20.803149 0.517640 -0.354405 -0.941391 -0.118583
-19.905107 50.693084 8.572146 163.379809 -8.089699 -0.049539 2.501720 6.934682 0.955368 0.098486 0.307619 0.005083 0.173167 0.539078 0.009892 2.136399 6.598705 0.228953 2.715831 18.078683 -0.457052 5.143370 -2.158141 -1.727312 1.804806 2.695634 -1.356551 -0.748178 -13.486317 -9.174797 -14.602027 -62.206741 39.097148 0.793795 6.078275 -17.627539 -4.068386 0.394829 0.914028 13.211742 -5.685130 5.211448 10.532404 -80.490888 -37.740964 1.981072 4.680055 19.146724 -2.124434 -72.646648 -0.835841 -118.362121 83.699670 -116.800393 -3.473866 -13.638813 -0.236487 -0.213578 0.662899 -0.094441 -11.540346 -75.422482 27.523325 110.517886 79.871801 106.076829 -15.888881 -20.834375 0.531404 -0.330325 -0.936280 -0.117098
-19.903765 50.684694 8.562911 163.378376 -8.115863 -0.046990 2.498736 6.942818 0.949238 0.081452 0.231542 -0.013068 0.169536 0.527940 0.009331 2.125682 6.569444 0.228695 2.651036 18.093396 -0.452214 5.022317 -2.133600 -1.696714 1.902951 2.640839 -1.342777 -0.229613 -13.602963 -9.658482 -14.701956 -60.437271 39.256405 0.533154 5.982052 -17.184185 -4.154540 0.380146 0.962728 12.719853 -5.881100 5.444126 2.282774 -79.707216 -29.157954 1.913881 4.907498 19.423027 -2.101992 -72.627696 -0.856332 -118.570723 83.700045 -117.005229 -3.485036 -13.655114 -0.239948 -0.211287 0.669472 -0.091387 -11.498862 -75.402464 27.515505 110.712895 79.875313 106.239382 -15.870672 -20.873140 0.563208 -0.360403 -0.922052 -0.125795
-19.900270 50.674843 8.556969 163.394803 -8.131687 -0.063950 2.466179 6.886161 0.943642 0.086113 0.237384 -0.010393 0.167451 0.520587 0.008937 2.125617 6.578718 0.234845 2.565750 18.055538 -0.464008 4.891806 -2.108106 -1.670298 1.989116 2.526811 -1.348820 0.200968 -13.699513 -10.179338 -14.569943 -59.012513 39.351752 0.327681 5.747402 -16.782678 -4.290529 0.312984 1.004045 12.222422 -6.109243 5.751099 -5.251311 -78.903582 -21.328397 1.814654 5.100911 19.593438 -2.151797 -72.617810 -0.819096 -118.779941 83.701587 -117.207414 -3.493614 -13.669258 -0.246134 -0.209863 0.674337 -0.089967 -11.550688 -75.388794 27.576469 110.822139 79.889096 106.342316 -15.874239 -20.920164 0.556312 -0.360052 -0.889230 -0.112563
